<svg xmlns="http://www.w3.org/2000/svg" viewBox="0 0 150 150" role="img" aria-label="SAAD.K"><rect x="0" y="0" width="150" height="150" fill="#0b0d0e" rx="6"/><circle cx="25" cy="45" r="4.2" fill="#fafafa" fill-opacity="0.08"/><circle cx="35" cy="45" r="4.2" fill="#fafafa"/><circle cx="45" cy="45" r="4.2" fill="#fafafa"/><circle cx="55" cy="45" r="4.2" fill="#fafafa"/><circle cx="65" cy="45" r="4.2" fill="#fafafa" fill-opacity="0.08"/><circle cx="25" cy="55" r="4.2" fill="#fafafa"/><circle cx="35" cy="55" r="4.2" fill="#fafafa" fill-opacity="0.08"/><circle cx="45" cy="55" r="4.2" fill="#fafafa" fill-opacity="0.08"/><circle cx="55" cy="55" r="4.2" fill="#fafafa" fill-opacity="0.08"/><circle cx="65" cy="55" r="4.2" fill="#fafafa"/><circle cx="25" cy="65" r="4.2" fill="#fafafa"/><circle cx="35" cy="65" r="4.2" fill="#fafafa" fill-opacity="0.08"/><circle cx="45" cy="65" r="4.2" fill="#fafafa" fill-opacity="0.08"/><circle cx="55" cy="65" r="4.2" fill="#fafafa" fill-opacity="0.08"/><circle cx="65" cy="65" r="4.2" fill="#fafafa" fill-opacity="0.08"/><circle cx="25" cy="75" r="4.2" fill="#fafafa" fill-opacity="0.08"/><circle cx="35" cy="75" r="4.2" fill="#fafafa"/><circle cx="45" cy="75" r="4.2" fill="#fafafa"/><circle cx="55" cy="75" r="4.2" fill="#fafafa"/><circle cx="65" cy="75" r="4.2" fill="#fafafa" fill-opacity="0.08"/><circle cx="25" cy="85" r="4.2" fill="#fafafa" fill-opacity="0.08"/><circle cx="35" cy="85" r="4.2" fill="#fafafa" fill-opacity="0.08"/><circle cx="45" cy="85" r="4.2" fill="#fafafa" fill-opacity="0.08"/><circle cx="55" cy="85" r="4.2" fill="#fafafa" fill-opacity="0.08"/><circle cx="65" cy="85" r="4.2" fill="#fafafa"/><circle cx="25" cy="95" r="4.2" fill="#fafafa"/><circle cx="35" cy="95" r="4.2" fill="#fafafa" fill-opacity="0.08"/><circle cx="45" cy="95" r="4.2" fill="#fafafa" fill-opacity="0.08"/><circle cx="55" cy="95" r="4.2" fill="#fafafa" fill-opacity="0.08"/><circle cx="65" cy="95" r="4.2" fill="#fafafa"/><circle cx="25" cy="105" r="4.2" fill="#fafafa" fill-opacity="0.08"/><circle cx="35" cy="105" r="4.2" fill="#fafafa"/><circle cx="45" cy="105" r="4.2" fill="#fafafa"/><circle cx="55" cy="105" r="4.2" fill="#fafafa"/><circle cx="65" cy="105" r="4.2" fill="#fafafa" fill-opacity="0.08"/><circle cx="75" cy="45" r="4.2" fill="#fafafa" fill-opacity="0.08"/><circle cx="75" cy="55" r="4.2" fill="#fafafa" fill-opacity="0.08"/><circle cx="75" cy="65" r="4.2" fill="#fafafa" fill-opacity="0.08"/><circle cx="75" cy="75" r="4.2" fill="#fafafa" fill-opacity="0.08"/><circle cx="75" cy="85" r="4.2" fill="#fafafa" fill-opacity="0.08"/><circle cx="75" cy="95" r="4.2" fill="#fafafa" fill-opacity="0.08"/><circle cx="75" cy="105" r="4.2" fill="#fafafa" fill-opacity="0.08"/><circle cx="85" cy="45" r="4.2" fill="#fafafa"/><circle cx="95" cy="45" r="4.2" fill="#fafafa"/><circle cx="105" cy="45" r="4.2" fill="#fafafa"/><circle cx="115" cy="45" r="4.2" fill="#fafafa"/><circle cx="125" cy="45" r="4.2" fill="#fafafa"/><circle cx="85" cy="55" r="4.2" fill="#fafafa"/><circle cx="95" cy="55" r="4.2" fill="#fafafa"/><circle cx="105" cy="55" r="4.2" fill="#fafafa"/><circle cx="115" cy="55" r="4.2" fill="#fafafa"/><circle cx="125" cy="55" r="4.2" fill="#fafafa"/><circle cx="85" cy="65" r="4.2" fill="#fafafa"/><circle cx="95" cy="65" r="4.2" fill="#fafafa"/><circle cx="105" cy="65" r="4.2" fill="#fafafa"/><circle cx="115" cy="65" r="4.2" fill="#fafafa"/><circle cx="125" cy="65" r="4.2" fill="#fafafa"/><circle cx="85" cy="75" r="4.2" fill="#fafafa"/><circle cx="95" cy="75" r="4.2" fill="#fafafa"/><circle cx="105" cy="75" r="4.2" fill="#fafafa"/><circle cx="115" cy="75" r="4.2" fill="#fafafa"/><circle cx="125" cy="75" r="4.2" fill="#fafafa"/><circle cx="85" cy="85" r="4.2" fill="#fafafa"/><circle cx="95" cy="85" r="4.2" fill="#fafafa"/><circle cx="105" cy="85" r="4.2" fill="#fafafa"/><circle cx="115" cy="85" r="4.2" fill="#fafafa"/><circle cx="125" cy="85" r="4.2" fill="#fafafa"/><circle cx="85" cy="95" r="4.2" fill="#fafafa"/><circle cx="95" cy="95" r="4.2" fill="#fafafa"/><circle cx="105" cy="95" r="4.2" fill="#fafafa"/><circle cx="115" cy="95" r="4.2" fill="#fafafa"/><circle cx="125" cy="95" r="4.2" fill="#fafafa"/><circle cx="85" cy="105" r="4.2" fill="#fafafa"/><circle cx="95" cy="105" r="4.2" fill="#fafafa"/><circle cx="105" cy="105" r="4.2" fill="#fafafa"/><circle cx="115" cy="105" r="4.2" fill="#fafafa"/><circle cx="125" cy="105" r="4.2" fill="#fafafa"/></svg>